<?xml version="1.0" encoding="iso-8859-1"?>
<!-- Generator: Adobe Illustrator 19.0.0, SVG Export Plug-In . SVG Version: 6.00 Build 0)  -->
<svg xmlns="http://www.w3.org/2000/svg" xmlns:xlink="http://www.w3.org/1999/xlink" version="1.1" id="Layer_1" x="0px" y="0px" viewBox="0 0 508.148 508.148" style="enable-background:new 0 0 508.148 508.148;" xml:space="preserve" width="512px" height="512px">
<g>
	<g>
		<g>
			<g>
				<rect x="174.535" y="429.517" width="95.448" height="15" fill="#025802"/>
			</g>
			<g>
				<rect x="317.707" y="429.517" width="15.908" height="15" fill="#025802"/>
			</g>
			<g>
				<rect x="174.535" y="334.068" width="95.448" height="15" fill="#025802"/>
			</g>
			<g>
				<rect x="317.707" y="334.068" width="15.908" height="15" fill="#025802"/>
			</g>
		</g>
		<g>
			<g>
				<rect x="87.041" y="31.816" width="47.724" height="15" fill="#025802"/>
			</g>
			<g>
				<polygon points="277.483,87.04 262.483,87.04 262.483,31.816 293.844,31.816 293.844,46.816       277.483,46.816     " fill="#025802"/>
			</g>
			<g>
				<rect x="421.109" y="103.402" width="15.908" height="15" fill="#025802"/>
			</g>
		</g>
		<g>
			<path d="M277.936,317.253h72.041v48.632H158.172v-48.632h95.902v-15H143.172v78.632h23.862V397.7h-23.862     v78.633h23.862v31.815h63.178v-15h-48.178v-16.815h144.08v16.815h-72.04v15h87.04v-31.815h23.862V397.7h-23.862v-16.815h23.862     v-78.632h-87.041V317.253z M349.977,461.333H158.172V412.7h191.805V461.333z M326.115,397.7h-144.08v-16.815h144.08V397.7z" fill="#025802"/>
			<rect x="285.89" y="429.517" width="15.908" height="15" fill="#025802"/>
			<rect x="285.89" y="334.068" width="15.908" height="15" fill="#025802"/>
			<path d="M213.85,0H39.77v94.994h15V78.633h144.08v96.355H54.77v-56.132h-15V253.62h174.08V0z      M54.77,63.633V15h144.08v48.633H54.77z M54.77,238.62v-48.632h144.08v48.632H54.77z" fill="#025802"/>
			<rect x="150.672" y="31.816" width="15.908" height="15" fill="#025802"/>
			<rect x="102.949" y="206.805" width="47.724" height="15" fill="#025802"/>
			<path d="M381.338,0v15h72.04v120.219H245.667V15h111.811V0H230.667v189.988h79.54v16.816h-23.862v38.862     h126.356v-38.862h-23.862v-16.816h79.54V0H381.338z M397.701,221.805v8.862h-96.356v-8.862h8.862h78.632H397.701z      M373.838,206.805h-48.632v-16.816h48.632V206.805z M245.667,174.988v-24.77h207.712v24.77H245.667z" fill="#025802"/>
			<rect x="262.029" y="103.402" width="15.908" height="15" fill="#025802"/>
			<rect x="421.109" y="71.587" width="15.908" height="15" fill="#025802"/>
			<rect x="389.292" y="103.402" width="15.908" height="15" fill="#025802"/>
			<polygon points="94.541,410.956 94.541,341.568 79.541,341.568 79.541,410.956 60.527,391.943      49.92,402.551 87.041,439.669 124.16,402.551 113.552,391.943    " fill="#025802"/>
			<polygon points="391.943,312.403 402.55,323.011 421.563,303.997 421.563,373.385 436.563,373.385      436.563,303.997 455.575,323.01 466.182,312.403 429.063,275.284    " fill="#025802"/>
			<rect x="79.541" y="309.753" width="15" height="15.907" fill="#025802"/>
			<rect x="79.541" y="277.937" width="15" height="15.908" fill="#025802"/>
			<rect x="421.563" y="421.108" width="15" height="15.908" fill="#025802"/>
			<rect x="421.563" y="389.293" width="15" height="15.907" fill="#025802"/>
		</g>
	</g>
</g>















</svg>
