<?xml version="1.0" encoding="iso-8859-1"?>
<!-- Generator: Adobe Illustrator 19.0.0, SVG Export Plug-In . SVG Version: 6.00 Build 0)  -->
<svg xmlns="http://www.w3.org/2000/svg" xmlns:xlink="http://www.w3.org/1999/xlink" version="1.1" id="Capa_1" x="0px" y="0px" viewBox="0 0 512 512" style="enable-background:new 0 0 512 512;" xml:space="preserve" width="512px" height="512px">
<g>
	<g>
		<path d="M272.532,56.558v198.993l50.73-39.682H512V56.558H272.532z M496.971,200.84H317.99l-30.428,23.441V71.588h209.409V200.84z    " fill="#FFFFFF"/>
	</g>
</g>
<g>
	<g>
		<path d="M0,256.95v159.311h189.74l49.728,39.682V256.95H0z M224.438,424.673l-29.426-23.442H15.029V271.979h209.409V424.673z" fill="#FFFFFF"/>
	</g>
</g>
<g>
	<g>
		<path d="M81.54,206.626l-20.116-20.117l-10.628,10.628l37.376,37.376l37.377-37.376l-10.628-10.628l-18.012,18.013    c9.545-75.145,73.88-133.435,151.576-133.435V56.057C161.772,56.057,90.208,122.164,81.54,206.626z" fill="#FFFFFF"/>
	</g>
</g>
<g>
	<g>
		<path d="M424.83,277.383l-37.377,37.376l10.628,10.628l18.012-18.013c-9.546,75.145-73.881,133.435-151.576,133.435v15.029    c86.713,0,158.277-66.106,166.945-150.568l20.116,20.117l10.628-10.628L424.83,277.383z" fill="#FFFFFF"/>
	</g>
</g>
<g>
	<g>
		<rect x="72.141" y="297.03" width="128.25" height="15.029" fill="#FFFFFF"/>
	</g>
</g>
<g>
	<g>
		<rect x="40.078" y="329.093" width="128.25" height="15.029" fill="#FFFFFF"/>
	</g>
</g>
<g>
	<g>
		<rect x="40.078" y="361.155" width="96.188" height="15.029" fill="#FFFFFF"/>
	</g>
</g>
<g>
	<g>
		<rect x="184.36" y="329.093" width="16.031" height="15.029" fill="#FFFFFF"/>
	</g>
</g>
<g>
	<g>
		<rect x="40.078" y="297.03" width="16.031" height="15.029" fill="#FFFFFF"/>
	</g>
</g>
<g>
	<g>
		<rect x="376.736" y="96.639" width="96.188" height="15.029" fill="#FFFFFF"/>
	</g>
</g>
<g>
	<g>
		<rect x="312.611" y="128.701" width="160.313" height="15.029" fill="#FFFFFF"/>
	</g>
</g>
<g>
	<g>
		<rect x="344.673" y="160.764" width="80.157" height="15.029" fill="#FFFFFF"/>
	</g>
</g>
<g>
	<g>
		<rect x="312.611" y="160.764" width="16.031" height="15.029" fill="#FFFFFF"/>
	</g>
</g>
<g>
	<g>
		<rect x="312.611" y="96.639" width="16.031" height="15.029" fill="#FFFFFF"/>
	</g>
</g>
<g>
	<g>
		<rect x="344.673" y="96.639" width="16.031" height="15.029" fill="#FFFFFF"/>
	</g>
</g>
<g>
</g>
<g>
</g>
<g>
</g>
<g>
</g>
<g>
</g>
<g>
</g>
<g>
</g>
<g>
</g>
<g>
</g>
<g>
</g>
<g>
</g>
<g>
</g>
<g>
</g>
<g>
</g>
<g>
</g>
</svg>
